<?xml version="1.0" encoding="UTF-8"?>
<svg version="1.1" viewBox="0 0 1600 1600" width="1280" height="1280" xmlns="http://www.w3.org/2000/svg">
<path transform="translate(907 399)" d="m0 0c8.8 7.48 16.7 15.2 23.7 24.4 0.597 0.784 0.597 0.784 1.21 1.58 13.3 17.6 23.1 37 29.1 58.3 0.23 0.799 0.461 1.6 0.698 2.42 0.766 2.89 1.39 5.78 1.99 8.7 0.131 0.625 0.262 1.25 0.397 1.89 3.73 18.6 3.13 37.7 3.21 56.5 0.0361 7.12 0.097 14.2 0.156 21.4 0.0142 1.73 0.0278 3.45 0.0408 5.18 0.112 14.7 0.503 29.4 1.19 44 2.53 1.27 4.25 1.11 7.09 1.1 1.08-0.00296 2.16-0.00592 3.27-0.00897 1.19-0.00831 2.38-0.0166 3.6-0.0252 1.25-0.00467 2.49-0.00935 3.78-0.0142 2.72-0.0105 5.44-0.0228 8.16-0.0377 4.32-0.0231 8.64-0.0364 13-0.0477 12.3-0.0334 24.6-0.0745 36.9-0.138 6.78-0.0348 13.6-0.0584 20.3-0.0702 3.58-0.0067 7.16-0.0189 10.7-0.045 44.7-0.318 86.5 10.9 120 42.2 2.04 1.9 4.14 3.67 6.29 5.45 4.96 4.34 8.89 9.45 12.9 14.6 1.21 1.47 1.21 1.47 2.44 2.96 26.7 33.2 37.1 76.8 33.1 119-5 42.6-27.9 82.8-61.3 110-9.19 7.23-18.9 13.2-29.3 18.6-0.613 0.32-1.23 0.639-1.86 0.968-22.6 11.6-47.9 17.1-73.2 17.2-1.28 0.0099-2.56 0.0198-3.88 0.03-3.48 0.0268-6.96 0.048-10.4 0.068-3.65 0.022-7.29 0.0493-10.9 0.0761-6.9 0.0497-13.8 0.0948-20.7 0.138-7.85 0.0495-15.7 0.104-23.6 0.16-16.1 0.114-32.3 0.22-48.4 0.323-0.00147 0.663-0.00293 1.33-0.00444 2.01-0.0373 16.3-0.0966 32.5-0.179 48.8-0.0395 7.86-0.0721 15.7-0.0871 23.6-0.0131 6.87-0.0404 13.7-0.0836 20.6-0.0223 3.62-0.0383 7.25-0.0373 10.9-4.27e-4 21.6-0.969 43.1-8.36 63.7-0.342 0.986-0.684 1.97-1.04 2.99-3.05 8.56-6.8 16.6-11.2 24.5-0.587 1.07-1.17 2.15-1.78 3.25-21.4 37.9-57.3 66.6-99.2 78.6-2.99 0.788-5.99 1.5-9 2.19-1.06 0.246-1.06 0.246-2.13 0.496-42 9.32-87.6-0.945-124-23.6-8.65-5.67-16.3-12.3-23.7-19.4-1.34-1.3-2.71-2.57-4.08-3.84-28.4-26.9-45.5-67.9-46.7-107-0.133-5.58-0.212-11.2-0.284-16.7-0.0383-2.48-0.0766-4.96-0.115-7.45-0.496-34.9-0.35-69.7-0.26-105-0.667 0.00277-1.33 0.00553-2.02 0.00838-16.3 0.0666-32.6 0.116-49 0.147-7.89 0.0154-15.8 0.0363-23.7 0.0709-6.89 0.0301-13.8 0.0493-20.7 0.0559-3.64 0.00387-7.28 0.0128-10.9 0.0349-19.6 0.115-38.7-0.331-57.6-6.13-1.3-0.389-1.3-0.389-2.64-0.786-19.1-5.81-36.6-14.4-52.6-26.4l-2.65-1.97c-33.5-26.2-56.4-63.9-63-106-5.18-44.2 4.26-88.7 32-124 1.84-2.28 3.72-4.52 5.62-6.75 0.472-0.551 0.943-1.1 1.43-1.67 28.5-32.9 68.4-52.3 112-56.3h17c-0.33 15.5-0.66 31-1 47-3.65 0.412-7.3 0.825-11.1 1.25-31.8 3.88-61.3 17.8-81.7 43.2-20 25.7-28.5 57.9-24.8 90.2 4.22 29 19.2 58.1 42.8 75.9 28.7 20.6 59.5 25.9 94 26 3.48 0.00952 6.97 0.0357 10.4 0.06 6.57 0.0433 13.1 0.0721 19.7 0.0953 7.49 0.0272 15 0.0711 22.5 0.116 15.4 0.0923 30.7 0.164 46.1 0.222 0.047-15.1 0.0821-30.1 0.104-45.2 0.0103-6.99 0.0242-14 0.0473-21 0.0223-6.76 0.0337-13.5 0.0389-20.3 0.00366-2.57 0.0108-5.13 0.0217-7.7 0.255-26.5 0.255-26.5-4.4-52.5-0.321-1.17-0.321-1.17-0.649-2.35-5.29-18.3-14.5-35.7-27.2-50-0.534-0.654-1.07-1.31-1.62-1.98-6.46-7.91-14.5-13.7-22.8-19.6-0.537-0.385-1.07-0.77-1.63-1.17-1.9-1.31-1.9-1.31-4.01-2.22-2.34-1.14-4.07-2.21-5.93-4.05-1.11-3.6-0.935-7.03-0.781-10.8 0.0113-1.04 0.0226-2.07 0.0343-3.14 0.0447-3.3 0.145-6.6 0.247-9.9 0.0401-2.24 0.0766-4.48 0.109-6.72 0.0881-5.49 0.222-11 0.391-16.5 21.7 3.95 42.7 19.7 58.4 34.6 2.51 2.43 2.51 2.43 5.02 4.27 13.4 11.2 23.7 27.7 31.6 43.2 0.311 0.6 0.623 1.2 0.943 1.82 16.3 31.7 19.4 65 19.3 100-0.00374 2.64-0.00658 5.28-0.00858 7.92-0.00615 6.19-0.0225 12.4-0.0427 18.6-0.0248 7.75-0.0355 15.5-0.0464 23.3-0.0193 13.8-0.0594 27.6-0.0977 41.4h81c0.66-1.65 1.32-3.3 2-5 7.44-9.56 18.6-16.8 30.7-18.8 14.9-1.38 28.4 1.21 40.3 10.8 9.93 9.22 16.1 20.6 17.3 34.2 0.426 15.5-4.38 27.3-14.9 38.5-11.2 10.8-23.7 13.8-38.8 13.6-11.3-0.47-21.8-5.71-29.9-13.6-8.64-9.48-8.64-9.48-8.64-13.7h-78c0.0909 22.7 0.0909 22.7 0.209 45.3 0.0543 9.26 0.106 18.5 0.137 27.8 0.0231 6.74 0.0567 13.5 0.102 20.2 0.0237 3.56 0.0426 7.13 0.0489 10.7 0.0539 26.9 0.0539 26.9 6.13 53 0.252 0.729 0.503 1.46 0.762 2.21 10.8 29.8 32.7 53.3 61.1 67 15.8 6.91 31.3 10.1 48.5 10.1 0.681-5.44e-4 1.36-0.00109 2.06-0.00165 31.3-0.115 59.1-12.1 81.7-33.7 29.5-30.8 35.6-68.2 35.5-109-0.00288-4.62 0.0117-9.25 0.029-13.9 0.0466-13.1 0.071-26.3 0.0775-39.4 0.00376-7.29 0.0218-14.6 0.0551-21.9 0.0201-4.59 0.0226-9.18 0.0117-13.8-0.00262-2.86 0.0115-5.72 0.0301-8.57 0.00779-1.94-0.00406-3.87-0.0167-5.81 0.0977-10.4 2.29-18.5 9.55-26.2 9.88-9.04 18.6-10.1 31.6-10.1 1.38-0.00603 2.76-0.013 4.15-0.0207 2.97-0.0148 5.94-0.0236 8.9-0.0277 4.71-0.00675 9.42-0.0286 14.1-0.0525 10-0.0489 20-0.0812 30-0.112 10.8-0.0332 21.6-0.0695 32.3-0.124 3.91-0.0194 7.81-0.0347 11.7-0.0403 27.3 0.475 27.3 0.475 53.9-4.65 1.05-0.329 1.05-0.329 2.13-0.665 16.6-5.3 32.2-13.2 45.1-25 0.783-0.719 0.783-0.719 1.58-1.45 23.2-21.6 36.8-50.8 38.4-82.5 0.0619-1.14 0.0619-1.14 0.125-2.3 0.792-29.4-10.4-56.4-29.1-78.7-0.592-0.739-1.18-1.48-1.79-2.24-18-21.6-46.9-34.6-74.5-37.6-5.63-0.425-11.3-0.359-16.9-0.364-1.41-0.00468-2.83-0.00982-4.24-0.0154-3.03-0.0112-6.06-0.0197-9.08-0.0261-4.8-0.0108-9.59-0.031-14.4-0.0531-13.6-0.0617-27.3-0.116-40.9-0.149-7.54-0.0184-15.1-0.0474-22.6-0.088-3.98-0.021-7.97-0.0365-11.9-0.0388-3.75-0.00216-7.49-0.0181-11.2-0.0444-2.02-0.0105-4.03-0.00646-6.05-0.00182-12.3-0.112-22.5-2.5-31.4-11.5-7.43-8.81-8.44-18.1-8.28-29.3 0.00657-1.8 0.00657-1.8 0.0133-3.63 0.0143-3.26 0.0418-6.52 0.0743-9.78 0.0302-3.44 0.0405-6.88 0.0523-10.3 0.036-9.49 0.102-19 0.169-28.5 0.0609-8.68 0.115-17.4 0.145-26 0.0123-3.41 0.0309-6.82 0.0652-10.2 0.18-18.9 0.0818-37.8-6.35-55.8-0.299-0.861-0.597-1.72-0.905-2.61-11.3-31.5-34.5-55.7-64.4-70.1-30-13.1-62.4-13.6-92.8-2-28.8 11.6-53.4 34.8-65.7 63.4-3.93 10.1-7.09 20.3-9 31 1.74 0.178 1.74 0.178 3.52 0.359 4.22 0.531 8.19 1.58 12.2 2.89 1.04 0.336 1.04 0.336 2.11 0.679 33.3 10.9 62.6 33.9 78.9 65.3 11 22 16.1 43.9 16.5 68.4 0.021 1.12 0.0421 2.23 0.0637 3.38 0.182 10.2 0.29 20.5 0.372 30.8 0.0559 6.87 0.137 13.7 0.28 20.6 0.139 6.67 0.209 13.3 0.237 20 0.0213 2.53 0.0651 5.05 0.133 7.58 0.351 13.8 0.243 23.9-9.47 34.3-1.11 1.11-2.24 2.21-3.39 3.29-5.33 5.02-8.77 9.03-9.23 16.5 0.0168 0.928 0.0335 1.86 0.0508 2.81-1.12 9.79-7.3 15.9-14.1 22.5-1.56 1.53-3.09 3.07-4.63 4.63-6.15 6.15-11.5 11.4-20.5 12.6-8.91-0.0749-14.9-0.363-21.4-6.62-5.56-5.95-8.1-10.3-8.25-18.6-0.04-1.14-0.0799-2.28-0.121-3.45 1.47-10.1 7.75-16.9 14.8-23.8 1.47-1.44 2.91-2.91 4.35-4.38 6.32-6.34 12-10.7 20.9-12.3 5.45-2.18 8.09-6.71 11.4-11.4 0.524-0.618 1.05-1.24 1.59-1.87 1.64-2.47 1.79-3.74 1.79-6.68 0.00846-0.909 0.0169-1.82 0.0256-2.76-0.00607-0.991-0.0121-1.98-0.0184-3 0.00789-1.57 0.00789-1.57 0.0159-3.18 0.0132-3.48 0.00445-6.95-0.00568-10.4 0.00202-2.42 0.00493-4.85 0.0087-7.27 0.00443-5.09-0.00202-10.2-0.016-15.3-0.017-6.49-0.00732-13 0.0107-19.5 0.0109-5.01 0.00736-10-3.83e-4 -15-0.00199-2.39 4.05e-4 -4.78 0.00744-7.17 0.0729-31.8-7.53-59.7-30.4-82.8-18.7-18.3-43.9-28.7-70-29.5-23.7 0.718-45.9 9.21-64 24.5-1.2 0.982-1.2 0.982-2.43 1.98-18.6 15.9-31 39.7-33.6 64-0.188 3.55-0.249 7.1-0.304 10.7-0.0194 1.05-0.0388 2.1-0.0589 3.18-0.168 9.66-0.265 19.3-0.341 29-0.0514 6.48-0.126 13-0.256 19.4-0.126 6.28-0.192 12.6-0.217 18.9-0.0195 2.38-0.0597 4.77-0.122 7.15-0.323 13-0.107 22.4 8.63 32.6 3.04 3.16 5.57 5.02 9.99 5.88 1.11 0.0058 1.11 0.0058 2.24 0.0117 8.07 0.991 13.7 8.09 19.2 13.6 1.47 1.48 2.97 2.95 4.46 4.41 7.52 7.47 12.3 13.7 12.9 24.6-0.252 7.07-3.16 13.7-8.1 18.7-5.68 4.29-10.4 6.17-17.6 6.38-1.16 0.049-2.31 0.098-3.5 0.148-10.8-1.43-17.5-8.38-24.8-15.9-0.923-0.92-1.85-1.84-2.8-2.79-11.5-11.7-11.5-11.7-11.9-21.5-0.923-7.72-3.94-11.3-9.12-16.8-0.744-0.826-0.744-0.826-1.5-1.67-1.86-2.06-1.86-2.06-4.28-4.23-10.2-10.8-8.86-22.7-8.61-36.8 0.0111-2.55 0.0181-5.11 0.0213-7.66 0.0168-5.34 0.0646-10.7 0.142-16 0.0976-6.79 0.136-13.6 0.155-20.4 0.0182-6.54 0.0693-13.1 0.12-19.6 0.00716-1.22 0.0143-2.44 0.0217-3.7 0.196-26.7 2.95-51.2 14.6-75.5 0.523-1.1 1.05-2.2 1.59-3.34 15.5-30.7 44-55.2 76.6-66 8.16-2.61 16.5-4.69 24.8-6.62 0.12-0.663 0.24-1.33 0.364-2.01 7.74-42.2 25.6-80.6 60.6-107 1.01-0.788 2.02-1.58 3.06-2.39 14.7-11.2 31.3-19.3 48.9-24.6 1.82-0.565 1.82-0.565 3.68-1.14 52.1-15 107-2.87 149 31.7zm-120 518c-5.05 5.53-6.82 10.6-6.62 18.1 0.721 6.64 3.54 11.6 8.25 16.3 6.32 4.45 12.4 5.84 20 5 7.14-1.87 11.9-5.92 16-12 3.08-6.22 3.15-13.8 1.35-20.4-2.64-5.88-6.93-10.2-12.9-12.6-9.9-3.1-18.5-1.84-26.1 5.64z" fill="#000002"/>
</svg>
